# xmcd
#
# Track frame offsets:
# 150
# 15667
# 35983
# 49904
# 66287
# 83979
# 107513
# 129177
# 145249
# 173259
# 190677
# 212351
# 231161
#
# Disc length: 3326 seconds
#
#
# Revision: 0
# Processed by: cddbd v1.5.1PL0 Copyright (c) Steve Scherf et al.
# Submitted via: FreeRIP 2.942 
#
DISCID=a80cfc0d
DTITLE=Susan Gibson - OuterSpace
DYEAR=2005
DGENRE=Folk
TTITLE0=Happiest When I'm Moving
TTITLE1=Company Man
TTITLE2=Together Strong
TTITLE3=Cactus
TTITLE4=Sister Hood
TTITLE5=Still Time
TTITLE6=Upon Re-Entry
TTITLE7=Too Big Love
TTITLE8=Sheep In Wolf's Clothing
TTITLE9=Stop The Bleeding
TTITLE10=First Sign Of Spring
TTITLE11=Wide Open Spaces
TTITLE12=Bonus Track
EXTD=
EXTT0=
EXTT1=
EXTT2=
EXTT3=
EXTT4=
EXTT5=
EXTT6=
EXTT7=
EXTT8=
EXTT9=
EXTT10=
EXTT11=
EXTT12=
PLAYORDER=
